<svg width="39" height="39" viewBox="0 0 39 39" fill="none" xmlns="http://www.w3.org/2000/svg">
<path d="M20.3553 4.10526H21.9803C25.4281 4.10526 28.7347 5.47489 31.1727 7.91287C33.6106 10.3508 34.9803 13.6574 34.9803 17.1053V18.7303H20.3553V4.10526ZM21.9803 17.1053H33.3553C33.3553 14.0884 32.1568 11.1951 30.0236 9.06192C27.8904 6.92869 24.9971 5.73026 21.9803 5.73026V17.1053ZM17.1053 21.9803H30.1053C30.1053 25.4281 28.7356 28.7347 26.2977 31.1726C23.8597 33.6106 20.5531 34.9803 17.1053 34.9803C13.6574 34.9803 10.3508 33.6106 7.91287 31.1726C5.4749 28.7347 4.10526 25.4281 4.10526 21.9803C4.10526 18.5324 5.4749 15.2258 7.91287 12.7879C10.3508 10.3499 13.6574 8.98026 17.1053 8.98026V21.9803ZM15.4803 23.6053V10.719C9.97151 11.5153 5.73026 16.244 5.73026 21.9803C5.73026 24.9971 6.9287 27.8904 9.06192 30.0236C11.1951 32.1568 14.0884 33.3553 17.1053 33.3553C22.8415 33.3553 27.5703 29.114 28.3665 23.6053H15.4803Z" fill="#FF785E"/>
</svg>
