<svg width="39" height="39" viewBox="0 0 39 39" fill="none" xmlns="http://www.w3.org/2000/svg">
<path fill-rule="evenodd" clip-rule="evenodd" d="M8.25337 8.2371C14.4202 2.07835 24.4465 2.14335 30.6507 8.34922C36.8582 14.5567 36.9232 24.5878 30.7547 30.7547C24.5879 36.9216 14.5567 36.8582 8.34925 30.6507C6.60318 28.9119 5.28392 26.792 4.49503 24.4574C3.70614 22.1229 3.46909 19.6373 3.8025 17.1957C3.84624 16.8753 4.01548 16.5854 4.27299 16.3897C4.53051 16.1941 4.85519 16.1087 5.17562 16.1525C5.49605 16.1962 5.78598 16.3655 5.98163 16.623C6.17728 16.8805 6.26262 17.2052 6.21887 17.5256C5.93586 19.5947 6.1365 21.7013 6.80502 23.6798C7.47354 25.6583 8.59174 27.4548 10.0717 28.9282C15.3449 34.1997 23.8322 34.2306 29.0322 29.0322C34.2306 23.8322 34.1997 15.3448 28.9282 10.0717C23.6584 4.80347 15.1759 4.76935 9.97587 9.96122L11.1914 9.9661C11.3514 9.96685 11.5098 9.99911 11.6573 10.061C11.8049 10.123 11.9388 10.2134 12.0515 10.3271C12.1641 10.4408 12.2533 10.5756 12.3138 10.7237C12.3744 10.8719 12.4052 11.0305 12.4044 11.1905C12.4037 11.3506 12.3714 11.5089 12.3095 11.6565C12.2475 11.8041 12.1571 11.938 12.0434 12.0507C11.9297 12.1633 11.795 12.2524 11.6468 12.313C11.4987 12.3736 11.34 12.4043 11.18 12.4036L7.04275 12.3841C6.72148 12.3824 6.41389 12.2539 6.18687 12.0266C5.95986 11.7993 5.83178 11.4915 5.8305 11.1702L5.80937 7.03622C5.80852 6.87618 5.8392 6.71753 5.89966 6.56933C5.96012 6.42114 6.04917 6.28631 6.16174 6.17253C6.27431 6.05876 6.40818 5.96827 6.55572 5.90623C6.70326 5.8442 6.86157 5.81183 7.02162 5.81097C7.18167 5.81012 7.34032 5.8408 7.48851 5.90126C7.6367 5.96172 7.77154 6.05077 7.88531 6.16334C7.99909 6.27591 8.08958 6.40978 8.15161 6.55732C8.21365 6.70486 8.24602 6.86318 8.24687 7.02322L8.25337 8.23872V8.2371Z" fill="#FF785E"/>
<path opacity="0.5" d="M19.5 11.7812C19.8232 11.7813 20.1332 11.9097 20.3618 12.1382C20.5903 12.3668 20.7188 12.6768 20.7188 13V18.9962L24.4237 22.7013C24.5435 22.8128 24.6395 22.9474 24.7061 23.0969C24.7728 23.2464 24.8086 23.4078 24.8115 23.5714C24.8143 23.735 24.7842 23.8976 24.7229 24.0493C24.6617 24.2011 24.5704 24.339 24.4547 24.4547C24.339 24.5704 24.2011 24.6617 24.0493 24.7229C23.8976 24.7842 23.735 24.8143 23.5714 24.8115C23.4078 24.8086 23.2464 24.7728 23.0969 24.7061C22.9474 24.6395 22.8128 24.5435 22.7013 24.4237L18.7574 20.4815C18.6063 20.3304 18.4864 20.1511 18.4047 19.9537C18.323 19.7562 18.2811 19.5447 18.2813 19.331V13C18.2813 12.6768 18.4097 12.3668 18.6382 12.1382C18.8668 11.9097 19.1768 11.7813 19.5 11.7812Z" fill="#FF785E"/>
</svg>
