<svg width="39" height="39" viewBox="0 0 39 39" fill="none" xmlns="http://www.w3.org/2000/svg">
<path d="M9.73375 8.00961C9.96198 8.23812 10.0902 8.54789 10.0902 8.87086C10.0902 9.19383 9.96198 9.50359 9.73375 9.73211C8.45109 11.0147 7.43364 12.5374 6.73947 14.2133C6.0453 15.8891 5.68801 17.6852 5.68801 19.4992C5.68801 21.3131 6.0453 23.1092 6.73947 24.7851C7.43364 26.4609 8.45109 27.9836 9.73375 29.2662C9.95565 29.4962 10.0783 29.8041 10.0754 30.1237C10.0725 30.4432 9.94418 30.7488 9.7181 30.9747C9.49203 31.2006 9.18629 31.3286 8.86673 31.3312C8.54718 31.3338 8.23938 31.2108 8.00962 30.9887C1.664 24.6431 1.664 14.3552 8.00962 8.00961C8.23814 7.78137 8.5479 7.65318 8.87087 7.65318C9.19384 7.65318 9.50523 7.78137 9.73375 8.00961ZM30.9904 8.00961C37.336 14.3552 37.336 24.6431 30.9904 30.9904C30.7593 31.2056 30.4538 31.3228 30.138 31.3173C29.8223 31.3117 29.521 31.1838 29.2977 30.9605C29.0744 30.7372 28.9465 30.4359 28.941 30.1202C28.9354 29.8045 29.0526 29.4989 29.2679 29.2679C30.5508 27.9852 31.5684 26.4624 32.2628 24.7864C32.9571 23.1104 33.3144 21.3141 33.3144 19.5C33.3144 17.6859 32.9571 15.8895 32.2628 14.2135C31.5684 12.5376 30.5508 11.0148 29.2679 9.73211C29.1481 9.62053 29.0521 9.48598 28.9855 9.33648C28.9189 9.18698 28.883 9.0256 28.8802 8.86195C28.8773 8.69831 28.9074 8.53576 28.9687 8.38401C29.03 8.23225 29.1212 8.0944 29.2369 7.97867C29.3527 7.86294 29.4905 7.7717 29.6423 7.71041C29.794 7.64911 29.9566 7.61901 30.1202 7.62189C30.2839 7.62478 30.4452 7.6606 30.5947 7.72721C30.7442 7.79382 30.8788 7.88986 30.9904 8.00961ZM14.3292 12.6051C14.5575 12.8336 14.6857 13.1434 14.6857 13.4664C14.6857 13.7893 14.5575 14.0991 14.3292 14.3276C13.65 15.0067 13.1111 15.8129 12.7435 16.7002C12.3758 17.5876 12.1866 18.5387 12.1866 19.4992C12.1866 20.4597 12.3758 21.4107 12.7435 22.2981C13.1111 23.1854 13.65 23.9917 14.3292 24.6707C14.5445 24.9018 14.6617 25.2073 14.6562 25.5231C14.6506 25.8388 14.5227 26.1401 14.2994 26.3634C14.0761 26.5867 13.7748 26.7146 13.4591 26.7201C13.1434 26.7257 12.8378 26.6085 12.6067 26.3932C10.7784 24.5648 9.75127 22.0849 9.75127 19.4992C9.75127 16.9134 10.7784 14.4336 12.6067 12.6051C12.8353 12.3769 13.145 12.2487 13.468 12.2487C13.791 12.2487 14.1007 12.3769 14.3292 12.6051ZM26.3949 12.6051C28.2232 14.4336 29.2504 16.9134 29.2504 19.4992C29.2504 22.0849 28.2232 24.5648 26.3949 26.3932C26.2825 26.5097 26.1481 26.6026 25.9994 26.6665C25.8507 26.7305 25.6908 26.7642 25.529 26.7657C25.3672 26.7671 25.2067 26.7364 25.0569 26.6752C24.9071 26.614 24.771 26.5235 24.6565 26.4092C24.542 26.2948 24.4514 26.1587 24.3901 26.009C24.3287 25.8592 24.2978 25.6988 24.2991 25.5369C24.3005 25.3751 24.334 25.2152 24.3978 25.0665C24.4616 24.9177 24.5544 24.7832 24.6707 24.6707C25.3498 23.9917 25.8884 23.1856 26.2559 22.2984C26.6234 21.4112 26.8126 20.4603 26.8126 19.5C26.8126 18.5397 26.6234 17.5888 26.2559 16.7016C25.8884 15.8144 25.3498 15.0083 24.6707 14.3292C24.4555 14.0982 24.3383 13.7926 24.3438 13.4769C24.3494 13.1611 24.4773 12.8599 24.7006 12.6366C24.9239 12.4133 25.2252 12.2854 25.5409 12.2798C25.8566 12.2743 26.1622 12.3915 26.3933 12.6067L26.3949 12.6051ZM19.5 17.0625C20.1465 17.0625 20.7665 17.3193 21.2236 17.7764C21.6807 18.2335 21.9375 18.8535 21.9375 19.5C21.9375 20.1464 21.6807 20.7664 21.2236 21.2236C20.7665 21.6807 20.1465 21.9375 19.5 21.9375C18.8535 21.9375 18.2335 21.6807 17.7764 21.2236C17.3193 20.7664 17.0625 20.1464 17.0625 19.5C17.0625 18.8535 17.3193 18.2335 17.7764 17.7764C18.2335 17.3193 18.8535 17.0625 19.5 17.0625Z" fill="#FF785E"/>
</svg>
