<svg width="39" height="39" viewBox="0 0 39 39" fill="none" xmlns="http://www.w3.org/2000/svg">
<path d="M31.6875 31.6875H7.3125V7.3125H19.5V4.875H7.3125C6.66623 4.87565 6.04662 5.13266 5.58964 5.58964C5.13266 6.04662 4.87565 6.66623 4.875 7.3125V31.6875C4.87565 32.3338 5.13266 32.9534 5.58964 33.4104C6.04662 33.8673 6.66623 34.1244 7.3125 34.125H31.6875C32.3338 34.1244 32.9534 33.8673 33.4104 33.4104C33.8673 32.9534 34.1244 32.3338 34.125 31.6875V19.5H31.6875V31.6875Z" fill="#FF785E"/>
<path d="M31.6875 31.6875H7.3125V7.3125H19.5V4.875H7.3125C6.66623 4.87565 6.04662 5.13266 5.58964 5.58964C5.13266 6.04662 4.87565 6.66623 4.875 7.3125V31.6875C4.87565 32.3338 5.13266 32.9534 5.58964 33.4104C6.04662 33.8673 6.66623 34.1244 7.3125 34.125H31.6875C32.3338 34.1244 32.9534 33.8673 33.4104 33.4104C33.8673 32.9534 34.1244 32.3338 34.125 31.6875V19.5H31.6875V31.6875Z" fill="#FF785E"/>
<path d="M31.6875 7.3125V2.4375H29.25V7.3125H24.375V9.75H29.25V14.625H31.6875V9.75H36.5625V7.3125H31.6875Z" fill="#FF785E"/>
</svg>
