<svg width="39" height="39" viewBox="0 0 39 39" fill="none" xmlns="http://www.w3.org/2000/svg">
<path d="M22.8784 2.4375C23.1364 2.43751 23.3878 2.51941 23.5963 2.67141C23.8048 2.82341 23.9597 3.03766 24.0386 3.28331L25.3792 7.449C25.9423 7.72444 26.481 8.034 26.9953 8.38256L31.2756 7.46119C31.5279 7.40731 31.7909 7.43492 32.0266 7.54005C32.2622 7.64518 32.4584 7.8224 32.5869 8.04619L35.9653 13.8937C36.0943 14.1174 36.149 14.3763 36.1214 14.633C36.0938 14.8897 35.9853 15.131 35.8117 15.3221L32.8746 18.564C32.9173 19.1856 32.9173 19.8095 32.8746 20.4311L35.8117 23.6779C35.9853 23.869 36.0938 24.1103 36.1214 24.367C36.149 24.6237 36.0943 24.8826 35.9653 25.1063L32.5869 30.9562C32.4581 31.1796 32.2617 31.3563 32.0261 31.461C31.7904 31.5657 31.5277 31.5929 31.2756 31.5388L26.9953 30.6174C26.4834 30.9636 25.9423 31.2756 25.3817 31.551L24.0386 35.7167C23.9597 35.9623 23.8048 36.1766 23.5963 36.3286C23.3878 36.4806 23.1364 36.5625 22.8784 36.5625H16.1216C15.8636 36.5625 15.6122 36.4806 15.4037 36.3286C15.1952 36.1766 15.0403 35.9623 14.9614 35.7167L13.6232 31.5534C13.0616 31.2788 12.52 30.9653 12.0022 30.615L7.72443 31.5388C7.47207 31.5927 7.20911 31.5651 6.97344 31.4599C6.73778 31.3548 6.54156 31.1776 6.41306 30.9538L3.03468 25.1063C2.90568 24.8826 2.85104 24.6237 2.87863 24.367C2.90623 24.1103 3.01465 23.869 3.18825 23.6779L6.12543 20.4311C6.08289 19.8111 6.08289 19.1889 6.12543 18.5689L3.18825 15.3221C3.01465 15.131 2.90623 14.8897 2.87863 14.633C2.85104 14.3763 2.90568 14.1174 3.03468 13.8937L6.41306 8.04375C6.54191 7.82041 6.73828 7.64369 6.97392 7.53901C7.20956 7.43433 7.47233 7.40709 7.72443 7.46119L12.0022 8.385C12.519 8.03644 13.0601 7.722 13.6232 7.44656L14.9638 3.28331C15.0425 3.03845 15.1967 2.82477 15.4042 2.67284C15.6117 2.52091 15.862 2.43854 16.1192 2.4375H22.8759H22.8784ZM21.9862 4.875H17.0137L15.6292 9.18206L14.6957 9.63788C14.2367 9.86246 13.7937 10.1182 13.3697 10.4033L12.5068 10.9882L8.08031 10.0328L5.59406 14.3422L8.62875 17.7011L8.55562 18.7346C8.5206 19.2443 8.5206 19.7557 8.55562 20.2654L8.62875 21.2989L5.58918 24.6578L8.07787 28.9672L12.5044 28.0142L13.3672 28.5968C13.7913 28.8818 14.2343 29.1375 14.6932 29.3621L15.6268 29.8179L17.0137 34.125H21.9911L23.3805 29.8155L24.3116 29.3621C24.7701 29.1381 25.2123 28.8823 25.6352 28.5968L26.4956 28.0142L30.9246 28.9672L33.4108 24.6578L30.3737 21.2989L30.4468 20.2654C30.4819 19.7549 30.4819 19.2426 30.4468 18.7322L30.3737 17.6987L33.4132 14.3422L30.9246 10.0328L26.4956 10.9834L25.6352 10.4033C25.2124 10.1176 24.7701 9.86186 24.3116 9.63788L23.3805 9.1845L21.9887 4.875H21.9862ZM19.5 12.1875C21.4394 12.1875 23.2994 12.9579 24.6707 14.3293C26.0421 15.7006 26.8125 17.5606 26.8125 19.5C26.8125 21.4394 26.0421 23.2994 24.6707 24.6707C23.2994 26.0421 21.4394 26.8125 19.5 26.8125C17.5606 26.8125 15.7006 26.0421 14.3293 24.6707C12.9579 23.2994 12.1875 21.4394 12.1875 19.5C12.1875 17.5606 12.9579 15.7006 14.3293 14.3293C15.7006 12.9579 17.5606 12.1875 19.5 12.1875ZM19.5 14.625C18.2071 14.625 16.9671 15.1386 16.0529 16.0529C15.1386 16.9671 14.625 18.2071 14.625 19.5C14.625 20.7929 15.1386 22.0329 16.0529 22.9471C16.9671 23.8614 18.2071 24.375 19.5 24.375C20.7929 24.375 22.0329 23.8614 22.9471 22.9471C23.8614 22.0329 24.375 20.7929 24.375 19.5C24.375 18.2071 23.8614 16.9671 22.9471 16.0529C22.0329 15.1386 20.7929 14.625 19.5 14.625Z" fill="#FF785E"/>
</svg>
